<svg width="64" height="64" viewBox="0 0 64 64" fill="none" xmlns="http://www.w3.org/2000/svg">
<path d="M0 14C0 6.26801 6.26801 0 14 0H50C57.732 0 64 6.26801 64 14V50C64 57.732 57.732 64 50 64H14C6.26801 64 0 57.732 0 50V14Z" fill="url(#paint0_linear_3293_73)"/>
<path d="M21.333 34.6675C21.0807 34.6684 20.8333 34.5976 20.6196 34.4635C20.4059 34.3294 20.2346 34.1373 20.1257 33.9097C20.0168 33.6821 19.9747 33.4283 20.0043 33.1777C20.0339 32.9272 20.134 32.6901 20.293 32.4942L33.493 18.8942C33.592 18.7799 33.7269 18.7027 33.8756 18.6752C34.0243 18.6477 34.178 18.6716 34.3113 18.7429C34.4446 18.8142 34.5498 18.9287 34.6094 19.0677C34.6691 19.2066 34.6798 19.3617 34.6397 19.5075L32.0797 27.5342C32.0042 27.7362 31.9788 27.9536 32.0058 28.1675C32.0327 28.3815 32.1112 28.5858 32.2345 28.7628C32.3577 28.9398 32.522 29.0842 32.7134 29.1837C32.9047 29.2833 33.1173 29.3349 33.333 29.3342H42.6663C42.9186 29.3333 43.166 29.4041 43.3797 29.5382C43.5934 29.6724 43.7647 29.8644 43.8736 30.092C43.9825 30.3196 44.0246 30.5734 43.995 30.824C43.9654 31.0746 43.8653 31.3116 43.7063 31.5075L30.5063 45.1075C30.4073 45.2218 30.2724 45.2991 30.1237 45.3266C29.975 45.3541 29.8214 45.3302 29.688 45.2589C29.5547 45.1875 29.4496 45.073 29.3899 44.9341C29.3302 44.7951 29.3196 44.64 29.3597 44.4942L31.9197 36.4675C31.9952 36.2655 32.0205 36.0482 31.9935 35.8342C31.9666 35.6202 31.8881 35.416 31.7649 35.239C31.6416 35.062 31.4773 34.9175 31.286 34.818C31.0946 34.7185 30.882 34.6668 30.6663 34.6675H21.333Z" stroke="white" stroke-width="2.66667" stroke-linecap="round" stroke-linejoin="round"/>
<defs>
<linearGradient id="paint0_linear_3293_73" x1="0" y1="0" x2="64" y2="64" gradientUnits="userSpaceOnUse">
<stop stop-color="#6041B0"/>
<stop offset="1" stop-color="#432DD7"/>
</linearGradient>
</defs>
</svg>
