<svg width="321" height="72" viewBox="0 0 321 72" fill="none" xmlns="http://www.w3.org/2000/svg">
<g filter="url(#filter0_d_3233_1334)">
<path d="M2.47836 9.91342C2.47836 4.43839 6.91675 0 12.3918 0H308.565C314.04 0 318.478 4.43839 318.478 9.91342V54.0866C318.478 59.5616 314.04 64 308.565 64H12.3918C6.91676 64 2.47836 59.5616 2.47836 54.0866V9.91342Z" fill="url(#paint0_linear_3233_1334)" shape-rendering="crispEdges"/>
<g clip-path="url(#clip0_3233_1334)">
<path d="M42.1092 23.7389H33.848C32.9355 23.7389 32.1958 24.4787 32.1958 25.3912V38.6091C32.1958 39.5216 32.9355 40.2613 33.848 40.2613H42.1092C43.0217 40.2613 43.7615 39.5216 43.7615 38.6091V25.3912C43.7615 24.4787 43.0217 23.7389 42.1092 23.7389Z" stroke="white" stroke-width="1.65224" stroke-linecap="round" stroke-linejoin="round"/>
<path d="M37.979 36.9557H37.9867" stroke="white" stroke-width="1.65224" stroke-linecap="round" stroke-linejoin="round"/>
</g>
<path d="M66.9256 40H61.674V23.778H67.0919C68.6814 23.778 70.0464 24.1028 71.187 24.7523C72.3276 25.3965 73.2015 26.3233 73.8088 27.5325C74.4214 28.7365 74.7276 30.1807 74.7276 31.8653C74.7276 33.555 74.4187 35.0072 73.8009 36.2217C73.1883 37.4363 72.3012 38.3709 71.1395 39.0257C69.9777 39.6752 68.5731 40 66.9256 40ZM64.1216 37.8614H66.7909C68.0266 37.8614 69.0536 37.629 69.8721 37.1643C70.6906 36.6944 71.3032 36.0158 71.7098 35.1287C72.1164 34.2362 72.3197 33.1484 72.3197 31.8653C72.3197 30.5926 72.1164 29.5128 71.7098 28.6256C71.3084 27.7385 70.7091 27.0652 69.9117 26.6058C69.1144 26.1464 68.1243 25.9167 66.9414 25.9167H64.1216V37.8614ZM82.7059 40.2455C81.5653 40.2455 80.5699 39.9842 79.7198 39.4614C78.8696 38.9386 78.2095 38.2072 77.7395 37.2673C77.2696 36.3274 77.0346 35.229 77.0346 33.9722C77.0346 32.7101 77.2696 31.6065 77.7395 30.6613C78.2095 29.7161 78.8696 28.9821 79.7198 28.4593C80.5699 27.9365 81.5653 27.6751 82.7059 27.6751C83.8465 27.6751 84.8419 27.9365 85.6921 28.4593C86.5423 28.9821 87.2023 29.7161 87.6723 30.6613C88.1423 31.6065 88.3773 32.7101 88.3773 33.9722C88.3773 35.229 88.1423 36.3274 87.6723 37.2673C87.2023 38.2072 86.5423 38.9386 85.6921 39.4614C84.8419 39.9842 83.8465 40.2455 82.7059 40.2455ZM82.7139 38.2574C83.4531 38.2574 84.0657 38.062 84.5515 37.6713C85.0373 37.2805 85.3964 36.7604 85.6287 36.1108C85.8664 35.4613 85.9852 34.7458 85.9852 33.9643C85.9852 33.188 85.8664 32.4752 85.6287 31.8257C85.3964 31.1709 85.0373 30.6454 84.5515 30.2494C84.0657 29.8534 83.4531 29.6553 82.7139 29.6553C81.9693 29.6553 81.3515 29.8534 80.8604 30.2494C80.3746 30.6454 80.0128 31.1709 79.7752 31.8257C79.5429 32.4752 79.4267 33.188 79.4267 33.9643C79.4267 34.7458 79.5429 35.4613 79.7752 36.1108C80.0128 36.7604 80.3746 37.2805 80.8604 37.6713C81.3515 38.062 81.9693 38.2574 82.7139 38.2574ZM93.2882 40L89.708 27.8335H92.1555L94.5397 36.7683H94.6585L97.0506 27.8335H99.4982L101.874 36.7287H101.993L104.362 27.8335H106.809L103.237 40H100.821L98.3497 31.2157H98.1675L95.6962 40H93.2882ZM111.425 32.7762V40H109.057V27.8335H111.33V29.8137H111.481C111.76 29.1695 112.199 28.652 112.795 28.2613C113.397 27.8705 114.155 27.6751 115.069 27.6751C115.898 27.6751 116.624 27.8494 117.247 28.1979C117.87 28.5411 118.353 29.0533 118.696 29.7345C119.04 30.4157 119.211 31.258 119.211 32.2613V40H116.843V32.5465C116.843 31.6646 116.613 30.9755 116.154 30.4791C115.694 29.9774 115.063 29.7266 114.261 29.7266C113.712 29.7266 113.223 29.8454 112.795 30.0831C112.373 30.3207 112.038 30.6692 111.789 31.1286C111.547 31.5827 111.425 32.1319 111.425 32.7762ZM124.756 23.778V40H122.388V23.778H124.756ZM133.067 40.2455C131.926 40.2455 130.931 39.9842 130.081 39.4614C129.231 38.9386 128.57 38.2072 128.1 37.2673C127.631 36.3274 127.396 35.229 127.396 33.9722C127.396 32.7101 127.631 31.6065 128.1 30.6613C128.57 29.7161 129.231 28.9821 130.081 28.4593C130.931 27.9365 131.926 27.6751 133.067 27.6751C134.207 27.6751 135.203 27.9365 136.053 28.4593C136.903 28.9821 137.563 29.7161 138.033 30.6613C138.503 31.6065 138.738 32.7101 138.738 33.9722C138.738 35.229 138.503 36.3274 138.033 37.2673C137.563 38.2072 136.903 38.9386 136.053 39.4614C135.203 39.9842 134.207 40.2455 133.067 40.2455ZM133.075 38.2574C133.814 38.2574 134.427 38.062 134.912 37.6713C135.398 37.2805 135.757 36.7604 135.99 36.1108C136.227 35.4613 136.346 34.7458 136.346 33.9643C136.346 33.188 136.227 32.4752 135.99 31.8257C135.757 31.1709 135.398 30.6454 134.912 30.2494C134.427 29.8534 133.814 29.6553 133.075 29.6553C132.33 29.6553 131.712 29.8534 131.221 30.2494C130.736 30.6454 130.374 31.1709 130.136 31.8257C129.904 32.4752 129.788 33.188 129.788 33.9643C129.788 34.7458 129.904 35.4613 130.136 36.1108C130.374 36.7604 130.736 37.2805 131.221 37.6713C131.712 38.062 132.33 38.2574 133.075 38.2574ZM144.922 40.2693C144.151 40.2693 143.454 40.1267 142.831 39.8416C142.208 39.5512 141.715 39.1313 141.35 38.5822C140.991 38.033 140.812 37.3597 140.812 36.5623C140.812 35.8759 140.944 35.3108 141.208 34.8673C141.472 34.4237 141.828 34.0725 142.277 33.8138C142.726 33.555 143.227 33.3597 143.782 33.2276C144.336 33.0956 144.901 32.9953 145.477 32.9267C146.206 32.8422 146.797 32.7735 147.251 32.7207C147.705 32.6626 148.035 32.5702 148.241 32.4435C148.447 32.3167 148.55 32.1108 148.55 31.8257V31.7702C148.55 31.0784 148.355 30.5425 147.964 30.1623C147.579 29.7821 147.003 29.592 146.237 29.592C145.44 29.592 144.812 29.7689 144.352 30.1227C143.898 30.4712 143.584 30.8593 143.41 31.287L141.184 30.7801C141.448 30.0408 141.833 29.4441 142.34 28.99C142.852 28.5306 143.441 28.1979 144.107 27.9919C144.772 27.7807 145.472 27.6751 146.206 27.6751C146.691 27.6751 147.206 27.7332 147.75 27.8494C148.299 27.9603 148.812 28.1662 149.287 28.4672C149.767 28.7682 150.161 29.1986 150.467 29.7583C150.773 30.3128 150.926 31.0336 150.926 31.9207V40H148.614V38.3366H148.519C148.365 38.6429 148.136 38.9439 147.829 39.2396C147.523 39.5353 147.13 39.7809 146.649 39.9762C146.169 40.1716 145.593 40.2693 144.922 40.2693ZM145.437 38.3683C146.092 38.3683 146.652 38.2389 147.117 37.9802C147.587 37.7214 147.943 37.3835 148.186 36.9663C148.434 36.5439 148.558 36.0924 148.558 35.6118V34.0435C148.474 34.128 148.31 34.2072 148.067 34.2811C147.829 34.3498 147.557 34.4105 147.251 34.4633C146.945 34.5108 146.647 34.5557 146.356 34.598C146.066 34.6349 145.823 34.6666 145.627 34.693C145.168 34.7511 144.748 34.8488 144.368 34.9861C143.993 35.1234 143.692 35.3214 143.465 35.5801C143.243 35.8336 143.132 36.1716 143.132 36.594C143.132 37.1802 143.349 37.6237 143.782 37.9247C144.215 38.2204 144.767 38.3683 145.437 38.3683ZM158.635 40.2376C157.653 40.2376 156.777 39.9868 156.006 39.4851C155.24 38.9782 154.638 38.2574 154.2 37.3227C153.767 36.3828 153.55 35.2554 153.55 33.9405C153.55 32.6257 153.769 31.5009 154.208 30.5662C154.651 29.6316 155.259 28.916 156.03 28.4197C156.8 27.9233 157.674 27.6751 158.651 27.6751C159.406 27.6751 160.014 27.8018 160.473 28.0553C160.938 28.3035 161.297 28.5939 161.55 28.9266C161.809 29.2593 162.01 29.5524 162.152 29.8058H162.295V23.778H164.663V40H162.35V38.1069H162.152C162.01 38.3657 161.804 38.6614 161.535 38.994C161.27 39.3267 160.906 39.6172 160.441 39.8653C159.977 40.1135 159.375 40.2376 158.635 40.2376ZM159.158 38.2178C159.839 38.2178 160.415 38.0383 160.885 37.6792C161.36 37.3148 161.719 36.8105 161.962 36.1663C162.21 35.5221 162.335 34.7722 162.335 33.9168C162.335 33.0719 162.213 32.3326 161.97 31.6989C161.727 31.0652 161.371 30.5715 160.901 30.2177C160.431 29.8639 159.85 29.687 159.158 29.687C158.445 29.687 157.851 29.8718 157.376 30.2415C156.901 30.6111 156.542 31.1154 156.299 31.7544C156.061 32.3933 155.942 33.1141 155.942 33.9168C155.942 34.73 156.064 35.4613 156.307 36.1108C156.55 36.7604 156.909 37.2752 157.384 37.6554C157.865 38.0303 158.456 38.2178 159.158 38.2178ZM179.737 27.8335V29.7345H172.861V27.8335H179.737ZM174.747 40V26.4236C174.747 25.6632 174.913 25.0322 175.246 24.5305C175.578 24.0236 176.019 23.646 176.568 23.3978C177.118 23.1444 177.714 23.0176 178.358 23.0176C178.834 23.0176 179.24 23.0572 179.578 23.1364C179.916 23.2104 180.167 23.279 180.331 23.3424L179.776 25.2592C179.665 25.2276 179.523 25.1906 179.349 25.1483C179.174 25.1008 178.963 25.0771 178.715 25.0771C178.139 25.0771 177.727 25.2196 177.479 25.5048C177.236 25.7899 177.115 26.2018 177.115 26.7404V40H174.747ZM186.826 40.2455C185.685 40.2455 184.69 39.9842 183.84 39.4614C182.99 38.9386 182.329 38.2072 181.86 37.2673C181.39 36.3274 181.155 35.229 181.155 33.9722C181.155 32.7101 181.39 31.6065 181.86 30.6613C182.329 29.7161 182.99 28.9821 183.84 28.4593C184.69 27.9365 185.685 27.6751 186.826 27.6751C187.967 27.6751 188.962 27.9365 189.812 28.4593C190.662 28.9821 191.322 29.7161 191.792 30.6613C192.262 31.6065 192.497 32.7101 192.497 33.9722C192.497 35.229 192.262 36.3274 191.792 37.2673C191.322 38.2072 190.662 38.9386 189.812 39.4614C188.962 39.9842 187.967 40.2455 186.826 40.2455ZM186.834 38.2574C187.573 38.2574 188.186 38.062 188.671 37.6713C189.157 37.2805 189.516 36.7604 189.749 36.1108C189.986 35.4613 190.105 34.7458 190.105 33.9643C190.105 33.188 189.986 32.4752 189.749 31.8257C189.516 31.1709 189.157 30.6454 188.671 30.2494C188.186 29.8534 187.573 29.6553 186.834 29.6553C186.089 29.6553 185.471 29.8534 184.98 30.2494C184.495 30.6454 184.133 31.1709 183.895 31.8257C183.663 32.4752 183.547 33.188 183.547 33.9643C183.547 34.7458 183.663 35.4613 183.895 36.1108C184.133 36.7604 184.495 37.2805 184.98 37.6713C185.471 38.062 186.089 38.2574 186.834 38.2574ZM195.141 40V27.8335H197.43V29.7662H197.557C197.779 29.1114 198.169 28.5966 198.729 28.2217C199.294 27.8414 199.933 27.6513 200.646 27.6513C200.794 27.6513 200.968 27.6566 201.169 27.6672C201.375 27.6778 201.536 27.691 201.652 27.7068V29.9722C201.557 29.9458 201.388 29.9167 201.145 29.885C200.902 29.8481 200.659 29.8296 200.416 29.8296C199.856 29.8296 199.357 29.9484 198.919 30.186C198.486 30.4184 198.143 30.7431 197.889 31.1603C197.636 31.5722 197.509 32.0422 197.509 32.5702V40H195.141ZM211.165 40H208.567L214.404 23.778H217.232L223.07 40H220.472L215.886 26.7246H215.759L211.165 40ZM211.6 33.6475H220.028V35.7069H211.6V33.6475ZM227.591 32.7762V40H225.222V27.8335H227.496V29.8137H227.646C227.926 29.1695 228.364 28.652 228.961 28.2613C229.563 27.8705 230.321 27.6751 231.234 27.6751C232.063 27.6751 232.789 27.8494 233.413 28.1979C234.036 28.5411 234.519 29.0533 234.862 29.7345C235.205 30.4157 235.377 31.258 235.377 32.2613V40H233.009V32.5465C233.009 31.6646 232.779 30.9755 232.319 30.4791C231.86 29.9774 231.229 29.7266 230.426 29.7266C229.877 29.7266 229.389 29.8454 228.961 30.0831C228.539 30.3207 228.203 30.6692 227.955 31.1286C227.712 31.5827 227.591 32.1319 227.591 32.7762ZM243.108 40.2376C242.126 40.2376 241.249 39.9868 240.478 39.4851C239.712 38.9782 239.11 38.2574 238.672 37.3227C238.239 36.3828 238.023 35.2554 238.023 33.9405C238.023 32.6257 238.242 31.5009 238.68 30.5662C239.124 29.6316 239.731 28.916 240.502 28.4197C241.273 27.9233 242.147 27.6751 243.124 27.6751C243.879 27.6751 244.486 27.8018 244.945 28.0553C245.41 28.3035 245.769 28.5939 246.023 28.9266C246.281 29.2593 246.482 29.5524 246.625 29.8058H246.767V23.778H249.135V40H246.823V38.1069H246.625C246.482 38.3657 246.276 38.6614 246.007 38.994C245.743 39.3267 245.378 39.6172 244.914 39.8653C244.449 40.1135 243.847 40.2376 243.108 40.2376ZM243.63 38.2178C244.312 38.2178 244.887 38.0383 245.357 37.6792C245.832 37.3148 246.192 36.8105 246.434 36.1663C246.683 35.5221 246.807 34.7722 246.807 33.9168C246.807 33.0719 246.685 32.3326 246.442 31.6989C246.199 31.0652 245.843 30.5715 245.373 30.2177C244.903 29.8639 244.322 29.687 243.63 29.687C242.918 29.687 242.324 29.8718 241.848 30.2415C241.373 30.6111 241.014 31.1154 240.771 31.7544C240.533 32.3933 240.415 33.1141 240.415 33.9168C240.415 34.73 240.536 35.4613 240.779 36.1108C241.022 36.7604 241.381 37.2752 241.856 37.6554C242.337 38.0303 242.928 38.2178 243.63 38.2178ZM252.516 40V27.8335H254.805V29.7662H254.932C255.153 29.1114 255.544 28.5966 256.104 28.2217C256.669 27.8414 257.308 27.6513 258.021 27.6513C258.169 27.6513 258.343 27.6566 258.544 27.6672C258.749 27.6778 258.911 27.691 259.027 27.7068V29.9722C258.932 29.9458 258.763 29.9167 258.52 29.885C258.277 29.8481 258.034 29.8296 257.791 29.8296C257.231 29.8296 256.732 29.9484 256.294 30.186C255.861 30.4184 255.518 30.7431 255.264 31.1603C255.011 31.5722 254.884 32.0422 254.884 32.5702V40H252.516ZM265.765 40.2455C264.625 40.2455 263.629 39.9842 262.779 39.4614C261.929 38.9386 261.269 38.2072 260.799 37.2673C260.329 36.3274 260.094 35.229 260.094 33.9722C260.094 32.7101 260.329 31.6065 260.799 30.6613C261.269 29.7161 261.929 28.9821 262.779 28.4593C263.629 27.9365 264.625 27.6751 265.765 27.6751C266.906 27.6751 267.901 27.9365 268.752 28.4593C269.602 28.9821 270.262 29.7161 270.732 30.6613C271.202 31.6065 271.437 32.7101 271.437 33.9722C271.437 35.229 271.202 36.3274 270.732 37.2673C270.262 38.2072 269.602 38.9386 268.752 39.4614C267.901 39.9842 266.906 40.2455 265.765 40.2455ZM265.773 38.2574C266.513 38.2574 267.125 38.062 267.611 37.6713C268.097 37.2805 268.456 36.7604 268.688 36.1108C268.926 35.4613 269.045 34.7458 269.045 33.9643C269.045 33.188 268.926 32.4752 268.688 31.8257C268.456 31.1709 268.097 30.6454 267.611 30.2494C267.125 29.8534 266.513 29.6553 265.773 29.6553C265.029 29.6553 264.411 29.8534 263.92 30.2494C263.434 30.6454 263.072 31.1709 262.835 31.8257C262.602 32.4752 262.486 33.188 262.486 33.9643C262.486 34.7458 262.602 35.4613 262.835 36.1108C263.072 36.7604 263.434 37.2805 263.92 37.6713C264.411 38.062 265.029 38.2574 265.773 38.2574ZM274.08 40V27.8335H276.449V40H274.08ZM275.276 25.9563C274.864 25.9563 274.511 25.819 274.215 25.5444C273.925 25.2645 273.779 24.9318 273.779 24.5464C273.779 24.1556 273.925 23.8229 274.215 23.5483C274.511 23.2685 274.864 23.1285 275.276 23.1285C275.688 23.1285 276.039 23.2685 276.33 23.5483C276.626 23.8229 276.773 24.1556 276.773 24.5464C276.773 24.9318 276.626 25.2645 276.33 25.5444C276.039 25.819 275.688 25.9563 275.276 25.9563ZM284.189 40.2376C283.207 40.2376 282.331 39.9868 281.56 39.4851C280.794 38.9782 280.192 38.2574 279.754 37.3227C279.321 36.3828 279.104 35.2554 279.104 33.9405C279.104 32.6257 279.323 31.5009 279.762 30.5662C280.205 29.6316 280.812 28.916 281.583 28.4197C282.354 27.9233 283.228 27.6751 284.205 27.6751C284.96 27.6751 285.568 27.8018 286.027 28.0553C286.492 28.3035 286.851 28.5939 287.104 28.9266C287.363 29.2593 287.564 29.5524 287.706 29.8058H287.849V23.778H290.217V40H287.904V38.1069H287.706C287.564 38.3657 287.358 38.6614 287.088 38.994C286.824 39.3267 286.46 39.6172 285.995 39.8653C285.531 40.1135 284.929 40.2376 284.189 40.2376ZM284.712 38.2178C285.393 38.2178 285.969 38.0383 286.439 37.6792C286.914 37.3148 287.273 36.8105 287.516 36.1663C287.764 35.5221 287.888 34.7722 287.888 33.9168C287.888 33.0719 287.767 32.3326 287.524 31.6989C287.281 31.0652 286.925 30.5715 286.455 30.2177C285.985 29.8639 285.404 29.687 284.712 29.687C283.999 29.687 283.405 29.8718 282.93 30.2415C282.455 30.6111 282.096 31.1154 281.853 31.7544C281.615 32.3933 281.496 33.1141 281.496 33.9168C281.496 34.73 281.618 35.4613 281.861 36.1108C282.104 36.7604 282.463 37.2752 282.938 37.6554C283.418 38.0303 284.01 38.2178 284.712 38.2178Z" fill="white"/>
</g>
<defs>
<filter id="filter0_d_3233_1334" x="7.62939e-06" y="0" width="320.957" height="71.4351" filterUnits="userSpaceOnUse" color-interpolation-filters="sRGB">
<feFlood flood-opacity="0" result="BackgroundImageFix"/>
<feColorMatrix in="SourceAlpha" type="matrix" values="0 0 0 0 0 0 0 0 0 0 0 0 0 0 0 0 0 0 127 0" result="hardAlpha"/>
<feMorphology radius="4.95671" operator="erode" in="SourceAlpha" result="effect1_dropShadow_3233_1334"/>
<feOffset dy="4.95671"/>
<feGaussianBlur stdDeviation="3.71753"/>
<feComposite in2="hardAlpha" operator="out"/>
<feColorMatrix type="matrix" values="0 0 0 0 0.677909 0 0 0 0 0.275943 0 0 0 0 1 0 0 0 0.5 0"/>
<feBlend mode="normal" in2="BackgroundImageFix" result="effect1_dropShadow_3233_1334"/>
<feBlend mode="normal" in="SourceGraphic" in2="effect1_dropShadow_3233_1334" result="shape"/>
</filter>
<linearGradient id="paint0_linear_3233_1334" x1="2.47836" y1="32" x2="318.478" y2="32" gradientUnits="userSpaceOnUse">
<stop stop-color="#6041B0"/>
<stop offset="1" stop-color="#9810FA"/>
</linearGradient>
<clipPath id="clip0_3233_1334">
<rect width="19.8268" height="19.8268" fill="white" transform="translate(28.0649 22.0866)"/>
</clipPath>
</defs>
</svg>
