<svg width="64" height="64" viewBox="0 0 64 64" fill="none" xmlns="http://www.w3.org/2000/svg">
<path d="M0 14C0 6.26801 6.26801 0 14 0H50C57.732 0 64 6.26801 64 14V50C64 57.732 57.732 64 50 64H14C6.26801 64 0 57.732 0 50V14Z" fill="url(#paint0_linear_3293_60)"/>
<path d="M29.333 35.5469V37.7149C29.328 38.1717 29.2057 38.6196 28.9778 39.0156C28.7499 39.4115 28.4241 39.7423 28.0317 39.9762C27.1985 40.5933 26.5208 41.3962 26.0523 42.3211C25.5838 43.246 25.3376 44.2674 25.333 45.3042" stroke="white" stroke-width="2.66667" stroke-linecap="round" stroke-linejoin="round"/>
<path d="M34.667 35.5469V37.7149C34.672 38.1717 34.7943 38.6196 35.0222 39.0156C35.2501 39.4115 35.5759 39.7423 35.9683 39.9762C36.8015 40.5933 37.4792 41.3962 37.9477 42.3211C38.4162 43.246 38.6624 44.2674 38.667 45.3042" stroke="white" stroke-width="2.66667" stroke-linecap="round" stroke-linejoin="round"/>
<path d="M40 28.0007H42C42.8841 28.0007 43.7319 27.6495 44.357 27.0243C44.9821 26.3992 45.3333 25.5514 45.3333 24.6673C45.3333 23.7833 44.9821 22.9354 44.357 22.3103C43.7319 21.6852 42.8841 21.334 42 21.334H40" stroke="white" stroke-width="2.66667" stroke-linecap="round" stroke-linejoin="round"/>
<path d="M21.333 45.334H42.6663" stroke="white" stroke-width="2.66667" stroke-linecap="round" stroke-linejoin="round"/>
<path d="M24 27.9993C24 30.1211 24.8429 32.1559 26.3431 33.6562C27.8434 35.1565 29.8783 35.9993 32 35.9993C34.1217 35.9993 36.1566 35.1565 37.6569 33.6562C39.1571 32.1559 40 30.1211 40 27.9993V19.9993C40 19.6457 39.8595 19.3066 39.6095 19.0565C39.3594 18.8065 39.0203 18.666 38.6667 18.666H25.3333C24.9797 18.666 24.6406 18.8065 24.3905 19.0565C24.1405 19.3066 24 19.6457 24 19.9993V27.9993Z" stroke="white" stroke-width="2.66667" stroke-linecap="round" stroke-linejoin="round"/>
<path d="M24.0003 28.0007H22.0003C21.1163 28.0007 20.2684 27.6495 19.6433 27.0243C19.0182 26.3992 18.667 25.5514 18.667 24.6673C18.667 23.7833 19.0182 22.9354 19.6433 22.3103C20.2684 21.6852 21.1163 21.334 22.0003 21.334H24.0003" stroke="white" stroke-width="2.66667" stroke-linecap="round" stroke-linejoin="round"/>
<defs>
<linearGradient id="paint0_linear_3293_60" x1="0" y1="0" x2="64" y2="64" gradientUnits="userSpaceOnUse">
<stop stop-color="#00A63E"/>
<stop offset="1" stop-color="#009689"/>
</linearGradient>
</defs>
</svg>
