<svg width="200" height="48" viewBox="0 0 200 48" fill="none" xmlns="http://www.w3.org/2000/svg">
<path d="M24.1189 17.7205L4.24632 23.1403L24.454 16.0021L24.1189 17.7205Z" fill="white"/>
<path d="M24.1736 14.5959L6.86286 20.6348L24.3583 12.5139L24.1736 14.5959Z" fill="white"/>
<path d="M25.2545 10.9665L11.1401 17.2557L25.8798 9.12128L25.2545 10.9665Z" fill="white"/>
<path d="M24.4012 20.382L24.3374 20.3988L24.3628 18.6107L4.48099e-05 26.8098L0.0638409 26.793L25.3326 21.9179L24.4012 20.382Z" fill="white"/>
<path d="M25.5723 22.7978L5.60999 27.8883L26.7364 24.1212L25.5723 22.7978Z" fill="white"/>
<path d="M27.2084 25.473L9.14551 28.7524L28.4272 27.1853L27.2084 25.473Z" fill="white"/>
<path d="M29.9921 28.1022L14.5498 29.5822L31.472 29.3929L29.9921 28.1022Z" fill="white"/>
<path d="M30.0222 5.26862C23.4122 8.86692 21.0472 17.1209 24.7363 23.6581C28.4254 30.1952 36.8074 32.6068 43.4016 29.0127C50.0117 25.4144 52.3766 17.1604 48.6875 10.6233C44.9941 4.07034 36.6323 1.67032 30.0222 5.26862ZM46.8345 11.63C47.507 12.8365 47.9411 14.1053 48.1556 15.3809C47.6122 15.5735 46.9329 15.7678 46.1526 15.9043C44.0861 16.2589 40.7699 16.2826 36.7383 14.3862C32.7268 12.5013 30.6575 10.6147 29.6324 9.3655C29.3782 9.06106 29.1805 8.7756 29.0275 8.52902C29.6477 7.99611 30.317 7.51779 31.0759 7.11722C36.6423 4.06132 43.7256 6.08746 46.8345 11.63ZM48.3135 17.0085C47.8033 17.2598 47.1254 17.5212 46.2901 17.7057C44.3854 18.1529 41.2208 18.3561 36.9867 16.7149C32.757 15.0894 30.3915 12.9936 29.1382 11.5343C28.5318 10.8162 28.1146 10.1666 27.8606 9.67674C28.118 9.37349 28.4116 9.07766 28.7094 8.79755C28.8624 9.04413 29.0515 9.29813 29.2811 9.57527C30.3351 10.8675 32.4536 12.8087 36.5661 14.7514C40.6945 16.69 44.1104 16.6571 46.2448 16.3016C47.0251 16.1651 47.6928 15.9907 48.2363 15.7981C48.2808 16.2079 48.3051 16.6061 48.3135 17.0085ZM25.8992 12.9537C26.2095 13.4626 26.6339 14.0766 27.1913 14.74C28.5889 16.4145 31.1666 18.7245 35.4643 20.3491C39.7779 21.9696 43.3022 21.7735 45.4988 21.3344C46.402 21.1489 47.1565 20.9181 47.7591 20.6932C47.4667 21.6124 47.0456 22.4979 46.5235 23.3254C46.0277 23.5055 45.4482 23.6907 44.756 23.8378C42.7111 24.271 39.3543 24.457 35.0508 22.9351C30.743 21.3974 28.0958 19.2066 26.6446 17.6473C25.9948 16.9575 25.5257 16.3046 25.1835 15.8041C25.2285 15.472 25.2735 15.14 25.3388 14.8195L25.499 15.0305C25.5611 15.1323 25.6492 15.143 25.7056 15.162C25.7735 15.1611 25.8255 15.1643 25.8848 15.132C25.9007 15.1278 25.9007 15.1278 25.9122 15.108C26.0423 15.0234 26.0713 14.881 25.9804 14.7362L25.5198 14.1148C25.6314 13.7148 25.7472 13.3306 25.8992 12.9537ZM26.3222 17.9001C27.8023 19.5025 30.4986 21.7478 34.9191 23.3235C39.3396 24.8991 42.7758 24.6924 44.8843 24.2425C45.3496 24.1378 45.763 24.0298 46.1402 23.9144C45.7829 24.4123 45.3651 24.8755 44.9226 25.3114C44.4573 25.4161 43.9081 25.5259 43.3142 25.5968C41.2261 25.8727 37.9662 25.9154 34.297 24.5311C30.3821 23.0593 27.7059 21.011 26.129 19.552C25.807 19.2485 25.5052 18.9565 25.2438 18.6876C25.1402 17.9393 25.1046 17.1901 25.1369 16.44C25.4458 16.8818 25.8356 17.3699 26.3222 17.9001ZM26.5894 22.6513C25.9962 21.6095 25.5981 20.5336 25.3589 19.4161C25.5019 19.5642 25.6405 19.6965 25.7994 19.8404C27.4008 21.3267 30.142 23.4255 34.1132 24.9163C37.8749 26.327 41.2186 26.2792 43.3544 25.9908C43.681 25.9392 43.9917 25.8917 44.2706 25.8526C43.6894 26.3416 43.0432 26.7801 42.348 27.1641C36.7974 30.2158 29.7141 28.1897 26.5894 22.6513ZM48.001 19.8377C47.3752 20.1024 46.4748 20.4219 45.3288 20.654C43.2275 21.0682 39.8506 21.2426 35.7104 19.6948C31.5701 18.1471 29.1022 15.9264 27.7579 14.3223C27.0447 13.4635 26.5611 12.6965 26.2537 12.1363C26.4187 11.8066 26.5836 11.4769 26.7846 11.1547L26.8135 11.1977L27.1859 11.8084C27.248 11.9102 27.3245 11.9407 27.3766 11.944C27.4488 11.9588 27.5124 11.9422 27.5717 11.9099L27.5875 11.9057C27.7176 11.8212 27.751 11.6945 27.6759 11.5455L27.1216 10.6452L27.1173 10.6295C27.2648 10.4224 27.4124 10.2153 27.5758 10.004C27.8457 10.4898 28.2455 11.0764 28.8072 11.7556C30.0893 13.2579 32.5198 15.4042 36.8507 17.0875C41.1772 18.7552 44.4458 18.5585 46.4141 18.0947C47.1974 17.9069 47.8319 17.6737 48.3306 17.4423C48.2881 18.2793 48.1807 19.0659 48.001 19.8377Z" fill="white"/>
<path d="M29.0535 13.3275L28.3584 12.5324C28.305 12.4621 28.2285 12.4316 28.1564 12.4167C28.0842 12.4019 28.0091 12.4384 27.9543 12.4864C27.8994 12.5344 27.8647 12.594 27.8502 12.6652C27.8516 12.7322 27.8689 12.795 27.9179 12.8496L28.1588 13.1066L28.6333 13.6563C28.7069 13.7381 28.7833 13.7687 28.8512 13.7678C28.9031 13.771 28.9508 13.7586 28.9941 13.7304C29.01 13.7263 29.0215 13.7064 29.0374 13.7023C29.1472 13.6062 29.1602 13.468 29.0535 13.3275Z" fill="#F2B200"/>
<path d="M30.6485 14.8419L29.875 14.1343C29.8057 14.0681 29.7292 14.0376 29.6613 14.0385C29.5934 14.0394 29.5183 14.0758 29.4634 14.1239C29.4128 14.1876 29.3781 14.2473 29.3795 14.3143C29.3809 14.3813 29.4141 14.44 29.4632 14.4946L29.7316 14.7277L30.2569 15.2138C30.3262 15.2799 30.4027 15.3105 30.4822 15.2897C30.5298 15.2773 30.5616 15.269 30.5934 15.2607C30.6251 15.2524 30.6526 15.2283 30.6642 15.2085C30.7697 15.0967 30.7668 14.9626 30.6485 14.8419Z" fill="#F2B200"/>
<path d="M32.3801 16.1844L31.5283 15.5644C31.4633 15.514 31.3708 15.4876 31.3073 15.5042C31.2235 15.5092 31.1686 15.5573 31.118 15.6211C31.0674 15.6848 31.0529 15.756 31.0543 15.8231C31.0557 15.8901 31.1047 15.9447 31.1495 15.9836L31.4412 16.177L32.0216 16.6152C32.1068 16.6772 32.1949 16.6878 32.2585 16.6712C32.2903 16.6629 32.3221 16.6546 32.3538 16.6463C32.3813 16.6223 32.4247 16.5941 32.4521 16.5701C32.5288 16.4152 32.5101 16.2853 32.3801 16.1844Z" fill="#F2B200"/>
<path d="M33.3315 16.7857C33.2506 16.7394 33.1784 16.7246 33.0989 16.7453C33.0194 16.7661 32.9644 16.8142 32.9297 16.8738C32.895 16.9335 32.8805 17.0047 32.8978 17.0676C32.9151 17.1305 32.9483 17.1892 33.009 17.224L33.3123 17.3975L33.9435 17.772C34.0446 17.8299 34.1284 17.8248 34.1761 17.8124C34.192 17.8082 34.2238 17.7999 34.2354 17.78C34.2788 17.7519 34.3221 17.7237 34.3453 17.6839C34.4263 17.5447 34.3917 17.4189 34.2458 17.3222L33.3315 16.7857Z" fill="#F2B200"/>
<path d="M35.2451 17.8437C35.1642 17.7974 35.0803 17.8024 35.0167 17.819C34.9372 17.8398 34.8866 17.9036 34.8519 17.9633C34.8215 18.0387 34.807 18.1099 34.8402 18.1687C34.8575 18.2316 34.9066 18.2862 34.9673 18.3209L35.2938 18.4548L35.944 18.7739C36.0451 18.8317 36.1247 18.811 36.1883 18.7943C36.2042 18.7902 36.2042 18.7902 36.2201 18.786C36.2793 18.7537 36.3184 18.7098 36.3372 18.6542C36.4023 18.5192 36.3634 18.3776 36.2059 18.3007L35.2451 17.8437Z" fill="#F2B200"/>
<path d="M37.2897 18.6983C37.1972 18.6719 37.1293 18.6728 37.0541 18.7093C36.9948 18.7416 36.9441 18.8055 36.9137 18.8809C36.8833 18.9563 36.9006 19.0193 36.9179 19.0822C36.9511 19.141 36.9959 19.1799 37.0725 19.2105L37.4064 19.3088L38.0989 19.5327C38.2116 19.5707 38.2868 19.5341 38.3345 19.5217C38.3938 19.4893 38.4445 19.4255 38.459 19.3542C38.5039 19.2075 38.4375 19.0899 38.2843 19.0288L37.2897 18.6983Z" fill="#F2B200"/>
<path d="M40.4893 19.4074L39.4421 19.2591C39.3539 19.2484 39.2743 19.2692 39.215 19.3016C39.16 19.3497 39.1093 19.4136 39.1107 19.4808C39.0962 19.5521 39.1179 19.6308 39.1468 19.6739C39.18 19.7327 39.2407 19.7675 39.3087 19.7666L39.6617 19.8094L40.3761 19.9265C40.4644 19.9372 40.528 19.9205 40.5715 19.8923C40.5874 19.8881 40.5989 19.8682 40.6149 19.8641C40.6699 19.8159 40.7046 19.7562 40.7191 19.6849C40.7322 19.5465 40.6499 19.433 40.4893 19.4074Z" fill="#F2B200"/>
<path d="M42.7087 19.4602L41.6524 19.4661C41.5685 19.4712 41.4889 19.492 41.4382 19.5559C41.3832 19.6041 41.3528 19.6796 41.3585 19.7626C41.3642 19.8455 41.3815 19.9085 41.4264 19.9475C41.4755 20.0022 41.532 20.0212 41.6 20.0203L41.9559 20.0117L42.6881 20.0061C42.7561 20.0052 42.8039 19.9927 42.8473 19.9644C42.8791 19.9561 42.9066 19.932 42.9182 19.9121C42.9732 19.864 42.9878 19.7926 42.9863 19.7254C42.9792 19.5753 42.8809 19.4659 42.7087 19.4602Z" fill="#F2B200"/>
<path d="M44.9285 19.193L43.879 19.3492C43.7791 19.3584 43.7241 19.4066 43.6734 19.4705C43.6227 19.5345 43.6082 19.6059 43.6298 19.6847C43.6515 19.7636 43.6847 19.8224 43.7296 19.8614C43.7904 19.8962 43.8468 19.9153 43.9148 19.9144L44.2579 19.8585L44.9802 19.7541C45.028 19.7416 45.0598 19.7332 45.0917 19.7249C45.1351 19.6967 45.1626 19.6725 45.1901 19.6485C45.2249 19.5887 45.2394 19.5173 45.238 19.45C45.202 19.2567 45.092 19.1671 44.9285 19.193Z" fill="#F2B200"/>
<path d="M47.0602 18.614L46.0539 18.9279C45.9584 18.9529 45.9034 19.0011 45.8729 19.0767C45.8381 19.1365 45.8279 19.2236 45.8655 19.2983C45.8872 19.3772 45.9364 19.432 45.9971 19.4668C46.0579 19.5016 46.126 19.5007 46.1897 19.484L46.5198 19.3808L47.2118 19.166C47.2437 19.1576 47.2596 19.1535 47.2712 19.1335C47.3306 19.1011 47.3697 19.0571 47.3929 19.0172C47.4277 18.9574 47.4219 18.8743 47.4046 18.8113C47.341 18.6419 47.2195 18.5723 47.0602 18.614Z" fill="#F2B200"/>
<path d="M26.2961 15.6113C26.2412 15.6593 26.2066 15.7189 26.208 15.7859C26.2094 15.853 26.2266 15.9158 26.2757 15.9704L26.5282 16.2076L27.0302 16.7333C27.0995 16.7995 27.1601 16.8341 27.2438 16.8291C27.2958 16.8324 27.3434 16.8199 27.3709 16.7959C27.3868 16.7917 27.4142 16.7677 27.4258 16.7479C27.5312 16.6361 27.5443 16.4979 27.4419 16.3731L26.7076 15.6217C26.6383 15.5555 26.5777 15.5209 26.494 15.5259C26.4102 15.5309 26.351 15.5633 26.2961 15.6113Z" fill="#F2B200"/>
<path d="M27.7857 17.3708C27.7871 17.4379 27.8203 17.4966 27.8694 17.5512L28.1494 17.7644L28.7023 18.2266C28.7918 18.3043 28.8799 18.3149 28.9276 18.3025C28.9594 18.2942 29.007 18.2817 29.0388 18.2734C29.0663 18.2494 29.098 18.2411 29.1212 18.2014C29.2224 18.0738 29.2196 17.9397 29.0896 17.8389L28.2726 17.1593C28.2033 17.0932 28.1311 17.0784 28.0473 17.0834C27.9636 17.0884 27.9043 17.1208 27.8537 17.1846C27.7988 17.2326 27.7843 17.3038 27.7857 17.3708Z" fill="#F2B200"/>
<path d="M29.5318 18.7627C29.5491 18.8256 29.5822 18.8843 29.6429 18.9191L29.9346 19.1125L30.5266 19.5308C30.6277 19.5886 30.6999 19.6035 30.7635 19.5869C30.7953 19.5785 30.8112 19.5744 30.8386 19.5504C30.882 19.5222 30.9095 19.4982 30.9326 19.4584C31.0179 19.335 30.9949 19.1893 30.8649 19.0885L29.9856 18.4925C29.9047 18.4462 29.8281 18.4156 29.7646 18.4322C29.6851 18.453 29.6258 18.4853 29.5752 18.5491C29.529 18.6286 29.5145 18.6998 29.5318 18.7627Z" fill="#F2B200"/>
<path d="M31.4976 20.142L31.8169 20.3115L32.4438 20.6702C32.5449 20.7281 32.6287 20.7231 32.6764 20.7106C32.6923 20.7065 32.7082 20.7023 32.7198 20.6824C32.7631 20.6542 32.8065 20.626 32.8253 20.5705C32.9063 20.4314 32.8717 20.3056 32.7258 20.2088L31.7999 19.6922C31.719 19.6459 31.6468 19.6311 31.5673 19.6519C31.4878 19.6726 31.4329 19.7207 31.3982 19.7803C31.3635 19.84 31.349 19.9112 31.3663 19.9741C31.4038 20.0486 31.4326 20.0916 31.4976 20.142Z" fill="#F2B200"/>
<path d="M33.7846 21.3229L34.4464 21.6221C34.5432 21.6643 34.6271 21.6592 34.6864 21.6269C34.7023 21.6227 34.7023 21.6227 34.7182 21.6186C34.7775 21.5862 34.8165 21.5423 34.8353 21.4868C34.9005 21.3517 34.8456 21.2143 34.704 21.1333L33.7316 20.696C33.6507 20.6497 33.5668 20.6548 33.5032 20.6714C33.4237 20.6922 33.3731 20.756 33.3383 20.8157C33.3079 20.891 33.2934 20.9623 33.3267 21.021C33.344 21.084 33.3931 21.1386 33.4653 21.1534L33.7846 21.3229Z" fill="#F2B200"/>
<path d="M35.91 22.1576L36.6024 22.3815C36.7152 22.4195 36.7947 22.3987 36.8381 22.3705C36.8974 22.3381 36.948 22.2743 36.9625 22.203C37.0075 22.0563 36.9569 21.9346 36.7878 21.8776L35.7774 21.5512C35.6848 21.5248 35.6169 21.5257 35.5417 21.5622C35.4665 21.5987 35.4317 21.6584 35.4013 21.7338C35.3709 21.8092 35.3723 21.8764 35.4055 21.9352C35.4387 21.9939 35.4835 22.0328 35.5601 22.0634L35.91 22.1576Z" fill="#F2B200"/>
<path d="M37.7566 22.662L38.0979 22.7247L38.8167 22.8575C38.889 22.8724 38.957 22.8715 39.0163 22.8391C39.0322 22.835 39.0322 22.835 39.0438 22.8151C39.0988 22.7669 39.1335 22.7072 39.148 22.6359C39.1727 22.4776 39.0904 22.3641 38.9298 22.3386L37.89 22.1546C37.8018 22.1439 37.7179 22.149 37.6629 22.1971C37.6079 22.2452 37.5573 22.3091 37.5428 22.3804C37.5282 22.4517 37.5499 22.5304 37.5788 22.5735C37.6395 22.6083 37.6843 22.6472 37.7566 22.662Z" fill="#F2B200"/>
<path d="M40.0176 22.9932L40.3619 23.0045L41.0911 23.0503C41.1591 23.0494 41.2227 23.0328 41.2705 23.0203C41.3023 23.012 41.3139 22.992 41.3255 22.9721C41.3805 22.924 41.4109 22.8485 41.4095 22.7813C41.4183 22.6271 41.32 22.5177 41.1638 22.5079L40.1062 22.4466C40.018 22.4359 39.9384 22.4567 39.8877 22.5206C39.8327 22.5688 39.8023 22.6443 39.7878 22.7156C39.7776 22.8027 39.8108 22.8615 39.844 22.9204C39.8889 22.9593 39.9496 22.9941 40.0176 22.9932Z" fill="#F2B200"/>
<path d="M42.2897 23.048L42.6414 23.0236L43.365 22.9865C43.4171 22.9897 43.4648 22.9772 43.5083 22.949C43.5358 22.9249 43.5633 22.9008 43.5749 22.8809C43.6256 22.817 43.6444 22.7614 43.6387 22.6784C43.6315 22.5282 43.5173 22.423 43.3494 22.4331L42.2944 22.5062C42.2105 22.5112 42.1352 22.5478 42.0802 22.596C42.0295 22.6599 42.0106 22.7155 42.0164 22.7985C42.0221 22.8815 42.0553 22.9403 42.1002 22.9793C42.1609 23.0141 42.2217 23.0489 42.2897 23.048Z" fill="#F2B200"/>
<path d="M44.5511 22.8225L44.8899 22.7508L45.6079 22.6306C45.6557 22.6181 45.6876 22.6097 45.7194 22.6014C45.7629 22.5731 45.8063 22.5448 45.8136 22.5091C45.8484 22.4493 45.8629 22.3779 45.8571 22.2949C45.8297 22.133 45.7082 22.0634 45.5446 22.0892L44.5037 22.277C44.4081 22.302 44.3488 22.3344 44.2981 22.3984C44.2633 22.4582 44.2328 22.5338 44.2545 22.6127C44.2761 22.6915 44.3094 22.7504 44.3543 22.7894C44.415 22.8242 44.4874 22.8391 44.5511 22.8225Z" fill="#F2B200"/>
<path d="M65.9547 24.665C64.8076 24.665 63.7704 24.4686 62.8433 24.0757C61.9319 23.6829 61.209 23.1171 60.6747 22.3786C60.1404 21.64 59.8654 20.7679 59.8497 19.7621H63.3854C63.4326 20.4379 63.6683 20.9721 64.0926 21.365C64.5326 21.7579 65.1297 21.9543 65.884 21.9543C66.654 21.9543 67.259 21.7736 67.699 21.4121C68.139 21.035 68.359 20.5479 68.359 19.9507C68.359 19.4636 68.2097 19.0629 67.9112 18.7486C67.6126 18.4343 67.2354 18.1907 66.7797 18.0179C66.3397 17.8293 65.7269 17.625 64.9412 17.405C63.8726 17.0907 63.0004 16.7843 62.3247 16.4857C61.6647 16.1714 61.0912 15.7079 60.604 15.095C60.1326 14.4664 59.8969 13.6336 59.8969 12.5964C59.8969 11.6221 60.1404 10.7736 60.6276 10.0507C61.1147 9.32786 61.7983 8.77786 62.6783 8.40071C63.5583 8.00786 64.564 7.81143 65.6954 7.81143C67.3926 7.81143 68.7676 8.22786 69.8204 9.06071C70.889 9.87786 71.4783 11.025 71.5883 12.5021H67.9583C67.9269 11.9364 67.6833 11.4729 67.2276 11.1114C66.7876 10.7343 66.1983 10.5457 65.4597 10.5457C64.8154 10.5457 64.2969 10.7107 63.904 11.0407C63.5269 11.3707 63.3383 11.85 63.3383 12.4786C63.3383 12.9186 63.4797 13.2879 63.7626 13.5864C64.0612 13.8693 64.4226 14.105 64.8469 14.2936C65.2869 14.4664 65.8997 14.6707 66.6854 14.9064C67.754 15.2207 68.6262 15.535 69.3019 15.8493C69.9776 16.1636 70.559 16.635 71.0462 17.2636C71.5333 17.8921 71.7769 18.7171 71.7769 19.7386C71.7769 20.6186 71.549 21.4357 71.0933 22.19C70.6376 22.9443 69.9697 23.5493 69.0897 24.005C68.2097 24.445 67.1647 24.665 65.9547 24.665ZM77.9379 13.3271C78.3621 12.73 78.9436 12.235 79.6821 11.8421C80.4364 11.4336 81.2929 11.2293 82.2514 11.2293C83.3671 11.2293 84.3729 11.5043 85.2686 12.0543C86.18 12.6043 86.895 13.39 87.4136 14.4114C87.9479 15.4171 88.215 16.5879 88.215 17.9236C88.215 19.2593 87.9479 20.4457 87.4136 21.4829C86.895 22.5043 86.18 23.2979 85.2686 23.8636C84.3729 24.4293 83.3671 24.7121 82.2514 24.7121C81.2929 24.7121 80.4443 24.5157 79.7057 24.1229C78.9829 23.73 78.3936 23.235 77.9379 22.6379V30.7229H74.6379V11.4414H77.9379V13.3271ZM84.8443 17.9236C84.8443 17.1379 84.6793 16.4621 84.3493 15.8964C84.035 15.315 83.6107 14.875 83.0764 14.5764C82.5579 14.2779 81.9921 14.1286 81.3793 14.1286C80.7821 14.1286 80.2164 14.2857 79.6821 14.6C79.1636 14.8986 78.7393 15.3386 78.4093 15.92C78.095 16.5014 77.9379 17.185 77.9379 17.9707C77.9379 18.7564 78.095 19.44 78.4093 20.0214C78.7393 20.6029 79.1636 21.0507 79.6821 21.365C80.2164 21.6636 80.7821 21.8129 81.3793 21.8129C81.9921 21.8129 82.5579 21.6557 83.0764 21.3414C83.6107 21.0271 84.035 20.5793 84.3493 19.9979C84.6793 19.4164 84.8443 18.725 84.8443 17.9236ZM96.4116 24.7121C95.1544 24.7121 94.023 24.4371 93.0173 23.8871C92.0116 23.3214 91.218 22.5279 90.6366 21.5064C90.0709 20.485 89.788 19.3064 89.788 17.9707C89.788 16.635 90.0787 15.4564 90.6602 14.435C91.2573 13.4136 92.0666 12.6279 93.088 12.0779C94.1094 11.5121 95.2487 11.2293 96.5059 11.2293C97.763 11.2293 98.9023 11.5121 99.9237 12.0779C100.945 12.6279 101.747 13.4136 102.328 14.435C102.925 15.4564 103.224 16.635 103.224 17.9707C103.224 19.3064 102.917 20.485 102.304 21.5064C101.707 22.5279 100.89 23.3214 99.853 23.8871C98.8316 24.4371 97.6844 24.7121 96.4116 24.7121ZM96.4116 21.8364C97.0087 21.8364 97.5666 21.695 98.0852 21.4121C98.6194 21.1136 99.0437 20.6736 99.358 20.0921C99.6723 19.5107 99.8294 18.8036 99.8294 17.9707C99.8294 16.7293 99.4994 15.7786 98.8394 15.1186C98.1952 14.4429 97.4016 14.105 96.4587 14.105C95.5159 14.105 94.7223 14.4429 94.078 15.1186C93.4494 15.7786 93.1352 16.7293 93.1352 17.9707C93.1352 19.2121 93.4416 20.1707 94.0544 20.8464C94.683 21.5064 95.4687 21.8364 96.4116 21.8364ZM109.487 14.1521V20.4693C109.487 20.9093 109.589 21.2314 109.793 21.4357C110.013 21.6243 110.374 21.7186 110.877 21.7186H112.409V24.5H110.335C107.554 24.5 106.163 23.1486 106.163 20.4457V14.1521H104.607V11.4414H106.163V8.21214H109.487V11.4414H112.409V14.1521H109.487ZM118.625 14.1521V20.4693C118.625 20.9093 118.727 21.2314 118.932 21.4357C119.152 21.6243 119.513 21.7186 120.016 21.7186H121.548V24.5H119.474C116.692 24.5 115.302 23.1486 115.302 20.4457V14.1521H113.746V11.4414H115.302V8.21214H118.625V11.4414H121.548V14.1521H118.625ZM129.72 24.7121C128.463 24.7121 127.331 24.4371 126.326 23.8871C125.32 23.3214 124.526 22.5279 123.945 21.5064C123.379 20.485 123.096 19.3064 123.096 17.9707C123.096 16.635 123.387 15.4564 123.969 14.435C124.566 13.4136 125.375 12.6279 126.396 12.0779C127.418 11.5121 128.557 11.2293 129.814 11.2293C131.071 11.2293 132.211 11.5121 133.232 12.0779C134.254 12.6279 135.055 13.4136 135.636 14.435C136.234 15.4564 136.532 16.635 136.532 17.9707C136.532 19.3064 136.226 20.485 135.613 21.5064C135.016 22.5279 134.199 23.3214 133.161 23.8871C132.14 24.4371 130.993 24.7121 129.72 24.7121ZM129.72 21.8364C130.317 21.8364 130.875 21.695 131.394 21.4121C131.928 21.1136 132.352 20.6736 132.666 20.0921C132.981 19.5107 133.138 18.8036 133.138 17.9707C133.138 16.7293 132.808 15.7786 132.148 15.1186C131.504 14.4429 130.71 14.105 129.767 14.105C128.824 14.105 128.031 14.4429 127.386 15.1186C126.758 15.7786 126.444 16.7293 126.444 17.9707C126.444 19.2121 126.75 20.1707 127.363 20.8464C127.991 21.5064 128.777 21.8364 129.72 21.8364Z" fill="white"/>
<path d="M64.3319 45H63.0507L65.9296 37H67.3241L70.203 45H68.9218L66.66 38.4531H66.5975L64.3319 45ZM64.5468 41.8672H68.703V42.8828H64.5468V41.8672ZM74.2694 45V37H77.1991C77.7668 37 78.2369 37.0937 78.6093 37.2812C78.9816 37.4661 79.2603 37.7174 79.4452 38.0352C79.6301 38.3503 79.7225 38.7057 79.7225 39.1016C79.7225 39.4349 79.6613 39.7161 79.5389 39.9453C79.4165 40.1719 79.2525 40.3542 79.0468 40.4922C78.8436 40.6276 78.6197 40.7266 78.3749 40.7891V40.8672C78.6405 40.8802 78.8996 40.9661 79.1522 41.125C79.4074 41.2812 79.6184 41.5039 79.785 41.793C79.9517 42.082 80.035 42.4336 80.035 42.8477C80.035 43.2565 79.9387 43.6237 79.746 43.9492C79.5559 44.2721 79.2616 44.5286 78.8632 44.7187C78.4647 44.9062 77.9556 45 77.3358 45H74.2694ZM75.4764 43.9648H77.2186C77.7968 43.9648 78.2108 43.8529 78.4608 43.6289C78.7108 43.4049 78.8358 43.125 78.8358 42.7891C78.8358 42.5365 78.772 42.3047 78.6444 42.0937C78.5168 41.8828 78.3345 41.7148 78.0975 41.5898C77.8632 41.4648 77.5845 41.4023 77.2616 41.4023H75.4764V43.9648ZM75.4764 40.4609H77.0936C77.3645 40.4609 77.608 40.4089 77.8241 40.3047C78.0428 40.2005 78.216 40.0547 78.3436 39.8672C78.4738 39.6771 78.5389 39.4531 78.5389 39.1953C78.5389 38.8646 78.4231 38.5872 78.1913 38.3633C77.9595 38.1393 77.604 38.0273 77.1249 38.0273H75.4764V40.4609ZM83.9589 45.1211C83.3677 45.1211 82.8586 44.9948 82.4315 44.7422C82.007 44.487 81.6789 44.1289 81.4471 43.668C81.218 43.2044 81.1034 42.6615 81.1034 42.0391C81.1034 41.4245 81.218 40.8828 81.4471 40.4141C81.6789 39.9453 82.0018 39.5794 82.4159 39.3164C82.8326 39.0534 83.3195 38.9219 83.8768 38.9219C84.2154 38.9219 84.5435 38.9779 84.8612 39.0898C85.1789 39.2018 85.4641 39.3776 85.7167 39.6172C85.9693 39.8568 86.1685 40.168 86.3143 40.5508C86.4602 40.931 86.5331 41.3932 86.5331 41.9375V42.3516H81.7635V41.4766H85.3886C85.3886 41.1693 85.3261 40.8971 85.201 40.6602C85.076 40.4206 84.9003 40.2318 84.6737 40.0937C84.4497 39.9557 84.1867 39.8867 83.8846 39.8867C83.5565 39.8867 83.2701 39.9674 83.0253 40.1289C82.7831 40.2878 82.5956 40.4961 82.4628 40.7539C82.3326 41.0091 82.2675 41.2865 82.2675 41.5859V42.2695C82.2675 42.6706 82.3378 43.0117 82.4784 43.293C82.6216 43.5742 82.8208 43.7891 83.076 43.9375C83.3313 44.0833 83.6294 44.1562 83.9706 44.1562C84.1919 44.1562 84.3938 44.125 84.576 44.0625C84.7583 43.9974 84.9159 43.901 85.0487 43.7734C85.1815 43.6458 85.2831 43.4883 85.3534 43.3008L86.4589 43.5C86.3703 43.8255 86.2115 44.1107 85.9823 44.3555C85.7557 44.5977 85.4706 44.7865 85.1268 44.9219C84.7857 45.0547 84.3964 45.1211 83.9589 45.1211ZM90.6298 39V39.9375H87.3524V39H90.6298ZM88.2313 37.5625H89.3993V43.2383C89.3993 43.4648 89.4331 43.6354 89.5009 43.75C89.5686 43.862 89.6558 43.9388 89.7626 43.9805C89.8719 44.0195 89.9904 44.0391 90.118 44.0391C90.2118 44.0391 90.2938 44.0326 90.3641 44.0195C90.4344 44.0065 90.4891 43.9961 90.5282 43.9883L90.7391 44.9531C90.6714 44.9792 90.5751 45.0052 90.4501 45.0313C90.3251 45.0599 90.1688 45.0755 89.9813 45.0781C89.674 45.0833 89.3876 45.0286 89.1219 44.9141C88.8563 44.7995 88.6415 44.6224 88.4774 44.3828C88.3134 44.1432 88.2313 43.8424 88.2313 43.4805V37.5625ZM94.7225 39V39.9375H91.4452V39H94.7225ZM92.3241 37.5625H93.4921V43.2383C93.4921 43.4648 93.5259 43.6354 93.5936 43.75C93.6613 43.862 93.7486 43.9388 93.8553 43.9805C93.9647 44.0195 94.0832 44.0391 94.2108 44.0391C94.3046 44.0391 94.3866 44.0326 94.4569 44.0195C94.5272 44.0065 94.5819 43.9961 94.621 43.9883L94.8319 44.9531C94.7642 44.9792 94.6678 45.0052 94.5428 45.0313C94.4178 45.0599 94.2616 45.0755 94.0741 45.0781C93.7668 45.0833 93.4803 45.0286 93.2147 44.9141C92.9491 44.7995 92.7343 44.6224 92.5702 44.3828C92.4061 44.1432 92.3241 43.8424 92.3241 43.4805V37.5625ZM98.536 45.1211C97.9449 45.1211 97.4358 44.9948 97.0087 44.7422C96.5842 44.487 96.2561 44.1289 96.0243 43.668C95.7951 43.2044 95.6805 42.6615 95.6805 42.0391C95.6805 41.4245 95.7951 40.8828 96.0243 40.4141C96.2561 39.9453 96.579 39.5794 96.993 39.3164C97.4097 39.0534 97.8967 38.9219 98.454 38.9219C98.7925 38.9219 99.1206 38.9779 99.4384 39.0898C99.7561 39.2018 100.041 39.3776 100.294 39.6172C100.546 39.8568 100.746 40.168 100.891 40.5508C101.037 40.931 101.11 41.3932 101.11 41.9375V42.3516H96.3407V41.4766H99.9657C99.9657 41.1693 99.9032 40.8971 99.7782 40.6602C99.6532 40.4206 99.4774 40.2318 99.2509 40.0937C99.0269 39.9557 98.7639 39.8867 98.4618 39.8867C98.1337 39.8867 97.8472 39.9674 97.6024 40.1289C97.3602 40.2878 97.1727 40.4961 97.0399 40.7539C96.9097 41.0091 96.8446 41.2865 96.8446 41.5859V42.2695C96.8446 42.6706 96.9149 43.0117 97.0555 43.293C97.1988 43.5742 97.398 43.7891 97.6532 43.9375C97.9084 44.0833 98.2066 44.1562 98.5477 44.1562C98.7691 44.1562 98.9709 44.125 99.1532 44.0625C99.3355 43.9974 99.493 43.901 99.6259 43.7734C99.7587 43.6458 99.8602 43.4883 99.9305 43.3008L101.036 43.5C100.947 43.8255 100.789 44.1107 100.559 44.3555C100.333 44.5977 100.048 44.7865 99.704 44.9219C99.3628 45.0547 98.9735 45.1211 98.536 45.1211ZM102.406 45V39H103.535V39.9531H103.598C103.707 39.6302 103.9 39.3763 104.176 39.1914C104.454 39.0039 104.769 38.9102 105.121 38.9102C105.194 38.9102 105.28 38.9128 105.379 38.918C105.48 38.9232 105.56 38.9297 105.617 38.9375V40.0547C105.57 40.0417 105.487 40.0273 105.367 40.0117C105.247 39.9935 105.127 39.9844 105.008 39.9844C104.732 39.9844 104.486 40.043 104.269 40.1602C104.056 40.2747 103.887 40.4349 103.762 40.6406C103.637 40.8437 103.574 41.0755 103.574 41.3359V45H102.406ZM116.582 41C116.582 41.8542 116.426 42.5885 116.113 43.2031C115.801 43.8151 115.372 44.2865 114.828 44.6172C114.286 44.9453 113.67 45.1094 112.98 45.1094C112.288 45.1094 111.669 44.9453 111.125 44.6172C110.583 44.2865 110.156 43.8138 109.844 43.1992C109.531 42.5846 109.375 41.8516 109.375 41C109.375 40.1458 109.531 39.4128 109.844 38.8008C110.156 38.1862 110.583 37.7148 111.125 37.3867C111.669 37.056 112.288 36.8906 112.98 36.8906C113.67 36.8906 114.286 37.056 114.828 37.3867C115.372 37.7148 115.801 38.1862 116.113 38.8008C116.426 39.4128 116.582 40.1458 116.582 41ZM115.387 41C115.387 40.349 115.281 39.8008 115.07 39.3555C114.862 38.9076 114.575 38.569 114.211 38.3398C113.849 38.1081 113.439 37.9922 112.98 37.9922C112.519 37.9922 112.108 38.1081 111.746 38.3398C111.384 38.569 111.098 38.9076 110.887 39.3555C110.678 39.8008 110.574 40.349 110.574 41C110.574 41.651 110.678 42.2005 110.887 42.6484C111.098 43.0937 111.384 43.4323 111.746 43.6641C112.108 43.8932 112.519 44.0078 112.98 44.0078C113.439 44.0078 113.849 43.8932 114.211 43.6641C114.575 43.4323 114.862 43.0937 115.07 42.6484C115.281 42.2005 115.387 41.651 115.387 41ZM117.993 47.25V39H119.134V39.9727H119.231C119.299 39.8477 119.397 39.7031 119.524 39.5391C119.652 39.375 119.829 39.2318 120.056 39.1094C120.282 38.9844 120.582 38.9219 120.954 38.9219C121.438 38.9219 121.871 39.0443 122.251 39.2891C122.631 39.5339 122.929 39.8867 123.145 40.3477C123.364 40.8086 123.474 41.3633 123.474 42.0117C123.474 42.6602 123.365 43.2161 123.149 43.6797C122.933 44.1406 122.636 44.4961 122.259 44.7461C121.881 44.9935 121.45 45.1172 120.966 45.1172C120.601 45.1172 120.303 45.056 120.071 44.9336C119.842 44.8112 119.662 44.668 119.532 44.5039C119.402 44.3398 119.302 44.194 119.231 44.0664H119.161V47.25H117.993ZM119.138 42C119.138 42.4219 119.199 42.7917 119.321 43.1094C119.444 43.4271 119.621 43.6758 119.852 43.8555C120.084 44.0326 120.368 44.1211 120.704 44.1211C121.053 44.1211 121.345 44.0286 121.579 43.8437C121.813 43.6562 121.99 43.4023 122.11 43.082C122.233 42.7617 122.294 42.401 122.294 42C122.294 41.6042 122.234 41.2487 122.114 40.9336C121.997 40.6185 121.82 40.3698 121.583 40.1875C121.349 40.0052 121.056 39.9141 120.704 39.9141C120.365 39.9141 120.079 40.0013 119.845 40.1758C119.613 40.3503 119.437 40.5937 119.317 40.9062C119.197 41.2187 119.138 41.5833 119.138 42ZM124.782 45V39H125.95V45H124.782ZM125.372 38.0742C125.169 38.0742 124.994 38.0065 124.849 37.8711C124.705 37.7331 124.634 37.569 124.634 37.3789C124.634 37.1862 124.705 37.0221 124.849 36.8867C124.994 36.7487 125.169 36.6797 125.372 36.6797C125.575 36.6797 125.748 36.7487 125.891 36.8867C126.037 37.0221 126.11 37.1862 126.11 37.3789C126.11 37.569 126.037 37.7331 125.891 37.8711C125.748 38.0065 125.575 38.0742 125.372 38.0742ZM128.689 41.4375V45H127.521V39H128.642V39.9766H128.717C128.855 39.6589 129.071 39.4036 129.365 39.2109C129.662 39.0182 130.036 38.9219 130.486 38.9219C130.895 38.9219 131.253 39.0078 131.56 39.1797C131.868 39.349 132.106 39.6016 132.275 39.9375C132.445 40.2734 132.529 40.6888 132.529 41.1836V45H131.361V41.3242C131.361 40.8893 131.248 40.5495 131.021 40.3047C130.795 40.0573 130.484 39.9336 130.088 39.9336C129.817 39.9336 129.576 39.9922 129.365 40.1094C129.157 40.2266 128.991 40.3984 128.869 40.625C128.749 40.849 128.689 41.1198 128.689 41.4375ZM134.096 45V39H135.264V45H134.096ZM134.685 38.0742C134.482 38.0742 134.308 38.0065 134.162 37.8711C134.019 37.7331 133.947 37.569 133.947 37.3789C133.947 37.1862 134.019 37.0221 134.162 36.8867C134.308 36.7487 134.482 36.6797 134.685 36.6797C134.889 36.6797 135.062 36.7487 135.205 36.8867C135.351 37.0221 135.424 37.1862 135.424 37.3789C135.424 37.569 135.351 37.7331 135.205 37.8711C135.062 38.0065 134.889 38.0742 134.685 38.0742ZM139.362 45.1211C138.8 45.1211 138.309 44.9922 137.89 44.7344C137.47 44.4766 137.145 44.1159 136.913 43.6523C136.681 43.1888 136.565 42.6471 136.565 42.0273C136.565 41.4049 136.681 40.8607 136.913 40.3945C137.145 39.9284 137.47 39.5664 137.89 39.3086C138.309 39.0508 138.8 38.9219 139.362 38.9219C139.925 38.9219 140.416 39.0508 140.835 39.3086C141.254 39.5664 141.58 39.9284 141.811 40.3945C142.043 40.8607 142.159 41.4049 142.159 42.0273C142.159 42.6471 142.043 43.1888 141.811 43.6523C141.58 44.1159 141.254 44.4766 140.835 44.7344C140.416 44.9922 139.925 45.1211 139.362 45.1211ZM139.366 44.1406C139.731 44.1406 140.033 44.0443 140.272 43.8516C140.512 43.6589 140.689 43.4023 140.804 43.082C140.921 42.7617 140.979 42.4089 140.979 42.0234C140.979 41.6406 140.921 41.2891 140.804 40.9687C140.689 40.6458 140.512 40.3867 140.272 40.1914C140.033 39.9961 139.731 39.8984 139.366 39.8984C138.999 39.8984 138.694 39.9961 138.452 40.1914C138.212 40.3867 138.034 40.6458 137.917 40.9687C137.802 41.2891 137.745 41.6406 137.745 42.0234C137.745 42.4089 137.802 42.7617 137.917 43.082C138.034 43.4023 138.212 43.6589 138.452 43.8516C138.694 44.0443 138.999 44.1406 139.366 44.1406ZM144.631 41.4375V45H143.463V39H144.584V39.9766H144.658C144.796 39.6589 145.012 39.4036 145.307 39.2109C145.603 39.0182 145.977 38.9219 146.428 38.9219C146.836 38.9219 147.195 39.0078 147.502 39.1797C147.809 39.349 148.047 39.6016 148.217 39.9375C148.386 40.2734 148.471 40.6888 148.471 41.1836V45H147.303V41.3242C147.303 40.8893 147.189 40.5495 146.963 40.3047C146.736 40.0573 146.425 39.9336 146.029 39.9336C145.758 39.9336 145.517 39.9922 145.307 40.1094C145.098 40.2266 144.933 40.3984 144.81 40.625C144.691 40.849 144.631 41.1198 144.631 41.4375ZM154.533 40.4648L153.474 40.6523C153.43 40.5169 153.36 40.388 153.264 40.2656C153.17 40.1432 153.042 40.043 152.881 39.9648C152.719 39.8867 152.517 39.8477 152.275 39.8477C151.945 39.8477 151.668 39.9219 151.447 40.0703C151.226 40.2161 151.115 40.4049 151.115 40.6367C151.115 40.8372 151.189 40.9987 151.338 41.1211C151.486 41.2435 151.726 41.3437 152.057 41.4219L153.01 41.6406C153.562 41.7682 153.973 41.9648 154.244 42.2305C154.515 42.4961 154.65 42.8411 154.65 43.2656C154.65 43.625 154.546 43.9453 154.338 44.2266C154.132 44.5052 153.844 44.724 153.474 44.8828C153.107 45.0417 152.682 45.1211 152.197 45.1211C151.525 45.1211 150.977 44.9779 150.553 44.6914C150.128 44.4023 149.868 43.9922 149.771 43.4609L150.9 43.2891C150.971 43.5833 151.115 43.806 151.334 43.957C151.553 44.1055 151.838 44.1797 152.189 44.1797C152.572 44.1797 152.878 44.1003 153.107 43.9414C153.336 43.7799 153.451 43.5833 153.451 43.3516C153.451 43.1641 153.381 43.0065 153.24 42.8789C153.102 42.7513 152.89 42.6549 152.603 42.5898L151.588 42.3672C151.028 42.2396 150.614 42.0365 150.346 41.7578C150.08 41.4792 149.947 41.1263 149.947 40.6992C149.947 40.3451 150.046 40.0352 150.244 39.7695C150.442 39.5039 150.715 39.2969 151.064 39.1484C151.413 38.9974 151.813 38.9219 152.264 38.9219C152.912 38.9219 153.422 39.0625 153.795 39.3437C154.167 39.6224 154.413 39.9961 154.533 40.4648ZM158.939 45V37H161.791C162.413 37 162.929 37.1133 163.338 37.3398C163.747 37.5664 164.053 37.8763 164.256 38.2695C164.459 38.6602 164.56 39.1003 164.56 39.5898C164.56 40.082 164.458 40.5247 164.252 40.918C164.049 41.3086 163.741 41.6185 163.33 41.8477C162.921 42.0742 162.407 42.1875 161.787 42.1875H159.826V41.1641H161.678C162.071 41.1641 162.39 41.0964 162.635 40.9609C162.879 40.8229 163.059 40.6354 163.174 40.3984C163.288 40.1615 163.346 39.8919 163.346 39.5898C163.346 39.2878 163.288 39.0195 163.174 38.7852C163.059 38.5508 162.878 38.3672 162.631 38.2344C162.386 38.1016 162.063 38.0352 161.662 38.0352H160.146V45H158.939ZM165.882 45V39H167.011V39.9531H167.073C167.182 39.6302 167.375 39.3763 167.651 39.1914C167.93 39.0039 168.245 38.9102 168.597 38.9102C168.669 38.9102 168.755 38.9128 168.854 38.918C168.956 38.9232 169.035 38.9297 169.093 38.9375V40.0547C169.046 40.0417 168.962 40.0273 168.843 40.0117C168.723 39.9935 168.603 39.9844 168.483 39.9844C168.207 39.9844 167.961 40.043 167.745 40.1602C167.531 40.2747 167.362 40.4349 167.237 40.6406C167.112 40.8437 167.05 41.0755 167.05 41.3359V45H165.882ZM172.416 45.1211C171.853 45.1211 171.363 44.9922 170.943 44.7344C170.524 44.4766 170.198 44.1159 169.967 43.6523C169.735 43.1888 169.619 42.6471 169.619 42.0273C169.619 41.4049 169.735 40.8607 169.967 40.3945C170.198 39.9284 170.524 39.5664 170.943 39.3086C171.363 39.0508 171.853 38.9219 172.416 38.9219C172.978 38.9219 173.469 39.0508 173.889 39.3086C174.308 39.5664 174.633 39.9284 174.865 40.3945C175.097 40.8607 175.213 41.4049 175.213 42.0273C175.213 42.6471 175.097 43.1888 174.865 43.6523C174.633 44.1159 174.308 44.4766 173.889 44.7344C173.469 44.9922 172.978 45.1211 172.416 45.1211ZM172.42 44.1406C172.784 44.1406 173.086 44.0443 173.326 43.8516C173.566 43.6589 173.743 43.4023 173.857 43.082C173.974 42.7617 174.033 42.4089 174.033 42.0234C174.033 41.6406 173.974 41.2891 173.857 40.9687C173.743 40.6458 173.566 40.3867 173.326 40.1914C173.086 39.9961 172.784 39.8984 172.42 39.8984C172.053 39.8984 171.748 39.9961 171.506 40.1914C171.266 40.3867 171.088 40.6458 170.971 40.9687C170.856 41.2891 170.799 41.6406 170.799 42.0234C170.799 42.4089 170.856 42.7617 170.971 43.082C171.088 43.4023 171.266 43.6589 171.506 43.8516C171.748 44.0443 172.053 44.1406 172.42 44.1406ZM178.763 45.1172C178.278 45.1172 177.846 44.9935 177.466 44.7461C177.088 44.4961 176.791 44.1406 176.575 43.6797C176.362 43.2161 176.255 42.6602 176.255 42.0117C176.255 41.3633 176.363 40.8086 176.579 40.3477C176.798 39.8867 177.097 39.5339 177.477 39.2891C177.858 39.0443 178.289 38.9219 178.77 38.9219C179.143 38.9219 179.442 38.9844 179.669 39.1094C179.898 39.2318 180.075 39.375 180.2 39.5391C180.328 39.7031 180.427 39.8477 180.497 39.9727H180.567V37H181.735V45H180.595V44.0664H180.497C180.427 44.194 180.325 44.3398 180.192 44.5039C180.062 44.668 179.882 44.8112 179.653 44.9336C179.424 45.056 179.127 45.1172 178.763 45.1172ZM179.02 44.1211C179.356 44.1211 179.64 44.0326 179.872 43.8555C180.106 43.6758 180.283 43.4271 180.403 43.1094C180.526 42.7917 180.587 42.4219 180.587 42C180.587 41.5833 180.527 41.2187 180.407 40.9062C180.287 40.5937 180.112 40.3503 179.88 40.1758C179.648 40.0013 179.362 39.9141 179.02 39.9141C178.669 39.9141 178.376 40.0052 178.141 40.1875C177.907 40.3698 177.73 40.6185 177.61 40.9336C177.493 41.2487 177.434 41.6042 177.434 42C177.434 42.401 177.494 42.7617 177.614 43.082C177.734 43.4023 177.911 43.6562 178.145 43.8437C178.382 44.0286 178.674 44.1211 179.02 44.1211ZM187.203 42.5117V39H188.375V45H187.226V43.9609H187.164C187.026 44.2813 186.805 44.5482 186.5 44.7617C186.198 44.9727 185.821 45.0781 185.371 45.0781C184.986 45.0781 184.644 44.9935 184.348 44.8242C184.053 44.6523 183.821 44.3984 183.652 44.0625C183.486 43.7266 183.402 43.3112 183.402 42.8164V39H184.57V42.6758C184.57 43.0846 184.683 43.4102 184.91 43.6523C185.137 43.8945 185.431 44.0156 185.793 44.0156C186.012 44.0156 186.229 43.9609 186.445 43.8516C186.664 43.7422 186.845 43.5768 186.988 43.3555C187.134 43.1341 187.206 42.8529 187.203 42.5117ZM192.472 45.1211C191.891 45.1211 191.391 44.9896 190.972 44.7266C190.555 44.4609 190.235 44.0951 190.011 43.6289C189.787 43.1628 189.675 42.6289 189.675 42.0273C189.675 41.418 189.789 40.8802 190.018 40.4141C190.248 39.9453 190.571 39.5794 190.987 39.3164C191.404 39.0534 191.895 38.9219 192.46 38.9219C192.916 38.9219 193.322 39.0065 193.679 39.1758C194.035 39.3424 194.323 39.5768 194.542 39.8789C194.763 40.181 194.895 40.5339 194.936 40.9375H193.8C193.737 40.6562 193.594 40.4141 193.37 40.2109C193.149 40.0078 192.852 39.9062 192.479 39.9062C192.154 39.9062 191.869 39.9922 191.624 40.1641C191.382 40.3333 191.193 40.5755 191.057 40.8906C190.922 41.2031 190.854 41.5729 190.854 42C190.854 42.4375 190.921 42.8151 191.054 43.1328C191.186 43.4505 191.374 43.6966 191.616 43.8711C191.861 44.0456 192.149 44.1328 192.479 44.1328C192.701 44.1328 192.901 44.0924 193.081 44.0117C193.263 43.9284 193.416 43.8099 193.538 43.6562C193.663 43.5026 193.75 43.3177 193.8 43.1016H194.936C194.895 43.4896 194.768 43.8359 194.557 44.1406C194.347 44.4453 194.064 44.6849 193.71 44.8594C193.358 45.0339 192.946 45.1211 192.472 45.1211ZM198.986 39V39.9375H195.709V39H198.986ZM196.588 37.5625H197.756V43.2383C197.756 43.4648 197.79 43.6354 197.857 43.75C197.925 43.862 198.012 43.9388 198.119 43.9805C198.228 44.0195 198.347 44.0391 198.474 44.0391C198.568 44.0391 198.65 44.0326 198.721 44.0195C198.791 44.0065 198.846 43.9961 198.885 43.9883L199.096 44.9531C199.028 44.9792 198.932 45.0052 198.807 45.0313C198.682 45.0599 198.525 45.0755 198.338 45.0781C198.03 45.0833 197.744 45.0286 197.478 44.9141C197.213 44.7995 196.998 44.6224 196.834 44.3828C196.67 44.1432 196.588 43.8424 196.588 43.4805V37.5625Z" fill="white"/>
</svg>
