<svg width="80" height="80" viewBox="0 0 80 80" fill="none" xmlns="http://www.w3.org/2000/svg">
<path d="M0 16C0 7.16344 7.16344 0 16 0H64C72.8366 0 80 7.16344 80 16V64C80 72.8366 72.8366 80 64 80H16C7.16344 80 0 72.8366 0 64V16Z" fill="#6041B0"/>
<path d="M26 26.0012C25.9998 25.2974 26.1853 24.606 26.5378 23.9968C26.8902 23.3876 27.3972 22.8822 28.0075 22.5316C28.6178 22.181 29.3098 21.9976 30.0136 22C30.7174 22.0024 31.4081 22.1905 32.016 22.5452L56.01 36.5412C56.6155 36.8925 57.1182 37.3967 57.4679 38.0032C57.8175 38.6097 58.0019 39.2974 58.0025 39.9975C58.0031 40.6975 57.8199 41.3855 57.4713 41.9927C57.1227 42.5998 56.6209 43.1048 56.016 43.4572L32.016 57.4572C31.4081 57.8119 30.7174 58 30.0136 58.0023C29.3098 58.0047 28.6178 57.8214 28.0075 57.4708C27.3972 57.1202 26.8902 56.6148 26.5378 56.0056C26.1853 55.3964 25.9998 54.705 26 54.0012V26.0012Z" stroke="white" stroke-width="4" stroke-linecap="round" stroke-linejoin="round"/>
</svg>
