<svg width="64" height="64" viewBox="0 0 64 64" fill="none" xmlns="http://www.w3.org/2000/svg">
<rect width="64" height="64" rx="12" fill="url(#paint0_linear_3293_43)"/>
<path d="M22.667 22.6675C22.6669 22.1982 22.7905 21.7373 23.0255 21.3312C23.2605 20.925 23.5985 20.5881 24.0053 20.3544C24.4122 20.1207 24.8735 19.9984 25.3427 20C25.8119 20.0016 26.2724 20.127 26.6777 20.3635L42.6737 29.6941C43.0773 29.9284 43.4125 30.2645 43.6456 30.6688C43.8787 31.0731 44.0016 31.5316 44.002 31.9983C44.0024 32.465 43.8803 32.9237 43.6479 33.3284C43.4155 33.7332 43.0809 34.0699 42.6777 34.3048L26.6777 43.6381C26.2724 43.8746 25.8119 44 25.3427 44.0016C24.8735 44.0032 24.4122 43.8809 24.0053 43.6472C23.5985 43.4135 23.2605 43.0765 23.0255 42.6704C22.7905 42.2643 22.6669 41.8033 22.667 41.3341V22.6675Z" stroke="white" stroke-width="2.66667" stroke-linecap="round" stroke-linejoin="round"/>
<defs>
<linearGradient id="paint0_linear_3293_43" x1="0" y1="0" x2="64" y2="64" gradientUnits="userSpaceOnUse">
<stop stop-color="#6041B0"/>
<stop offset="1" stop-color="#9810FA"/>
</linearGradient>
</defs>
</svg>
